mtllib city_materials.mtl
g Concrete
usemtl Concrete
v -1.200000 0.000000 -1.200000
v -1.200000 0.640000 -1.200000
v 1.200000 0.640000 -1.200000
v -1.200000 0.000000 -1.200000
v 1.200000 0.640000 -1.200000
v 1.200000 0.000000 -1.200000
v -1.200000 0.000000 1.200000
v 1.200000 0.000000 1.200000
v 1.200000 0.640000 1.200000
v -1.200000 0.000000 1.200000
v 1.200000 0.640000 1.200000
v -1.200000 0.640000 1.200000
v -1.200000 0.000000 -1.200000
v -1.200000 0.000000 1.200000
v -1.200000 0.640000 1.200000
v -1.200000 0.000000 -1.200000
v -1.200000 0.640000 1.200000
v -1.200000 0.640000 -1.200000
v 1.200000 0.000000 -1.200000
v 1.200000 0.640000 -1.200000
v 1.200000 0.640000 1.200000
v 1.200000 0.000000 -1.200000
v 1.200000 0.640000 1.200000
v 1.200000 0.000000 1.200000
v -1.200000 0.000000 -1.200000
v 1.200000 0.000000 -1.200000
v 1.200000 0.000000 1.200000
v -1.200000 0.000000 -1.200000
v 1.200000 0.000000 1.200000
v -1.200000 0.000000 1.200000
v -1.200000 0.640000 -1.200000
v -1.200000 0.640000 1.200000
v 1.200000 0.640000 1.200000
v -1.200000 0.640000 -1.200000
v 1.200000 0.640000 1.200000
v 1.200000 0.640000 -1.200000
vn 0.000000 0.000000 -1.000000
vn 0.000000 0.000000 -1.000000
vn 0.000000 0.000000 -1.000000
vn 0.000000 0.000000 -1.000000
vn 0.000000 0.000000 -1.000000
vn 0.000000 0.000000 -1.000000
vn 0.000000 0.000000 1.000000
vn 0.000000 0.000000 1.000000
vn 0.000000 0.000000 1.000000
vn 0.000000 0.000000 1.000000
vn 0.000000 0.000000 1.000000
vn 0.000000 0.000000 1.000000
vn -1.000000 0.000000 0.000000
vn -1.000000 0.000000 0.000000
vn -1.000000 0.000000 0.000000
vn -1.000000 0.000000 0.000000
vn -1.000000 0.000000 0.000000
vn -1.000000 0.000000 0.000000
vn 1.000000 0.000000 0.000000
vn 1.000000 0.000000 0.000000
vn 1.000000 0.000000 0.000000
vn 1.000000 0.000000 0.000000
vn 1.000000 0.000000 0.000000
vn 1.000000 0.000000 0.000000
vn 0.000000 -1.000000 0.000000
vn 0.000000 -1.000000 0.000000
vn 0.000000 -1.000000 0.000000
vn 0.000000 -1.000000 0.000000
vn 0.000000 -1.000000 0.000000
vn 0.000000 -1.000000 0.000000
vn 0.000000 1.000000 0.000000
vn 0.000000 1.000000 0.000000
vn 0.000000 1.000000 0.000000
vn 0.000000 1.000000 0.000000
vn 0.000000 1.000000 0.000000
vn 0.000000 1.000000 0.000000
vt -0.400000 1.000000
vt -0.400000 1.213333
vt 0.400000 1.213333
vt -0.400000 1.000000
vt 0.400000 1.213333
vt 0.400000 1.000000
vt -0.400000 1.000000
vt 0.400000 1.000000
vt 0.400000 1.213333
vt -0.400000 1.000000
vt 0.400000 1.213333
vt -0.400000 1.213333
vt -0.400000 1.000000
vt 0.400000 1.000000
vt 0.400000 1.213333
vt -0.400000 1.000000
vt 0.400000 1.213333
vt -0.400000 1.213333
vt -0.400000 1.000000
vt -0.400000 1.213333
vt 0.400000 1.213333
vt -0.400000 1.000000
vt 0.400000 1.213333
vt 0.400000 1.000000
vt -0.400000 1.400000
vt 0.400000 1.400000
vt 0.400000 0.600000
vt -0.400000 1.400000
vt 0.400000 0.600000
vt -0.400000 0.600000
vt -0.400000 1.400000
vt -0.400000 0.600000
vt 0.400000 0.600000
vt -0.400000 1.400000
vt 0.400000 0.600000
vt 0.400000 1.400000
f 1/1/1 2/2/2 3/3/3
f 4/4/4 5/5/5 6/6/6
f 7/7/7 8/8/8 9/9/9
f 10/10/10 11/11/11 12/12/12
f 13/13/13 14/14/14 15/15/15
f 16/16/16 17/17/17 18/18/18
f 19/19/19 20/20/20 21/21/21
f 22/22/22 23/23/23 24/24/24
f 25/25/25 26/26/26 27/27/27
f 28/28/28 29/29/29 30/30/30
f 31/31/31 32/32/32 33/33/33
f 34/34/34 35/35/35 36/36/36
g Soil
usemtl Soil
v -1.025000 0.630000 -1.025000
v -1.025000 0.670000 -1.025000
v 1.025000 0.670000 -1.025000
v -1.025000 0.630000 -1.025000
v 1.025000 0.670000 -1.025000
v 1.025000 0.630000 -1.025000
v -1.025000 0.630000 1.025000
v 1.025000 0.630000 1.025000
v 1.025000 0.670000 1.025000
v -1.025000 0.630000 1.025000
v 1.025000 0.670000 1.025000
v -1.025000 0.670000 1.025000
v -1.025000 0.630000 -1.025000
v -1.025000 0.630000 1.025000
v -1.025000 0.670000 1.025000
v -1.025000 0.630000 -1.025000
v -1.025000 0.670000 1.025000
v -1.025000 0.670000 -1.025000
v 1.025000 0.630000 -1.025000
v 1.025000 0.670000 -1.025000
v 1.025000 0.670000 1.025000
v 1.025000 0.630000 -1.025000
v 1.025000 0.670000 1.025000
v 1.025000 0.630000 1.025000
v -1.025000 0.630000 -1.025000
v 1.025000 0.630000 -1.025000
v 1.025000 0.630000 1.025000
v -1.025000 0.630000 -1.025000
v 1.025000 0.630000 1.025000
v -1.025000 0.630000 1.025000
v -1.025000 0.670000 -1.025000
v -1.025000 0.670000 1.025000
v 1.025000 0.670000 1.025000
v -1.025000 0.670000 -1.025000
v 1.025000 0.670000 1.025000
v 1.025000 0.670000 -1.025000
vn 0.000000 0.000000 -1.000000
vn 0.000000 0.000000 -1.000000
vn 0.000000 0.000000 -1.000000
vn 0.000000 0.000000 -1.000000
vn 0.000000 0.000000 -1.000000
vn 0.000000 0.000000 -1.000000
vn 0.000000 0.000000 1.000000
vn 0.000000 0.000000 1.000000
vn 0.000000 0.000000 1.000000
vn 0.000000 0.000000 1.000000
vn 0.000000 0.000000 1.000000
vn 0.000000 0.000000 1.000000
vn -1.000000 0.000000 0.000000
vn -1.000000 0.000000 0.000000
vn -1.000000 0.000000 0.000000
vn -1.000000 0.000000 0.000000
vn -1.000000 0.000000 0.000000
vn -1.000000 0.000000 0.000000
vn 1.000000 0.000000 0.000000
vn 1.000000 0.000000 0.000000
vn 1.000000 0.000000 0.000000
vn 1.000000 0.000000 0.000000
vn 1.000000 0.000000 0.000000
vn 1.000000 0.000000 0.000000
vn 0.000000 -1.000000 0.000000
vn 0.000000 -1.000000 0.000000
vn 0.000000 -1.000000 0.000000
vn 0.000000 -1.000000 0.000000
vn 0.000000 -1.000000 0.000000
vn 0.000000 -1.000000 0.000000
vn 0.000000 1.000000 0.000000
vn 0.000000 1.000000 0.000000
vn 0.000000 1.000000 0.000000
vn 0.000000 1.000000 0.000000
vn 0.000000 1.000000 0.000000
vn 0.000000 1.000000 0.000000
vt -4.827750 -0.792250
vt -4.827750 -0.952250
vt 3.372250 -0.952250
vt -4.827750 -0.792250
vt 3.372250 -0.952250
vt 3.372250 -0.792250
vt -3.372250 -2.247750
vt 4.827750 -2.247750
vt 4.827750 -2.407750
vt -3.372250 -2.247750
vt 4.827750 -2.407750
vt -3.372250 -2.407750
vt -4.827750 -0.792250
vt -3.372250 -2.247750
vt -3.372250 -2.407750
vt -4.827750 -0.792250
vt -3.372250 -2.407750
vt -4.827750 -0.952250
vt 3.372250 -0.792250
vt 3.372250 -0.952250
vt 4.827750 -2.407750
vt 3.372250 -0.792250
vt 4.827750 -2.407750
vt 4.827750 -2.247750
vt -4.827750 -0.792250
vt 3.372250 -0.792250
vt 4.827750 -2.247750
vt -4.827750 -0.792250
vt 4.827750 -2.247750
vt -3.372250 -2.247750
vt -4.827750 -0.952250
vt -3.372250 -2.407750
vt 4.827750 -2.407750
vt -4.827750 -0.952250
vt 4.827750 -2.407750
vt 3.372250 -0.952250
f 37/37/37 38/38/38 39/39/39
f 40/40/40 41/41/41 42/42/42
f 43/43/43 44/44/44 45/45/45
f 46/46/46 47/47/47 48/48/48
f 49/49/49 50/50/50 51/51/51
f 52/52/52 53/53/53 54/54/54
f 55/55/55 56/56/56 57/57/57
f 58/58/58 59/59/59 60/60/60
f 61/61/61 62/62/62 63/63/63
f 64/64/64 65/65/65 66/66/66
f 67/67/67 68/68/68 69/69/69
f 70/70/70 71/71/71 72/72/72
g Wood
usemtl Wood
v 0.160000 0.660000 0.000000
v 0.129443 0.660000 -0.094046
v 0.129443 4.200000 -0.094046
v 0.160000 0.660000 0.000000
v 0.129443 4.200000 -0.094046
v 0.160000 4.200000 0.000000
v 0.000000 0.660000 0.000000
v 0.129443 0.660000 -0.094046
v 0.160000 0.660000 0.000000
v 0.000000 4.200000 0.000000
v 0.160000 4.200000 0.000000
v 0.129443 4.200000 -0.094046
v 0.129443 0.660000 -0.094046
v 0.049443 0.660000 -0.152169
v 0.049443 4.200000 -0.152169
v 0.129443 0.660000 -0.094046
v 0.049443 4.200000 -0.152169
v 0.129443 4.200000 -0.094046
v 0.000000 0.660000 0.000000
v 0.049443 0.660000 -0.152169
v 0.129443 0.660000 -0.094046
v 0.000000 4.200000 0.000000
v 0.129443 4.200000 -0.094046
v 0.049443 4.200000 -0.152169
v 0.049443 0.660000 -0.152169
v -0.049443 0.660000 -0.152169
v -0.049443 4.200000 -0.152169
v 0.049443 0.660000 -0.152169
v -0.049443 4.200000 -0.152169
v 0.049443 4.200000 -0.152169
v 0.000000 0.660000 0.000000
v -0.049443 0.660000 -0.152169
v 0.049443 0.660000 -0.152169
v 0.000000 4.200000 0.000000
v 0.049443 4.200000 -0.152169
v -0.049443 4.200000 -0.152169
v -0.049443 0.660000 -0.152169
v -0.129443 0.660000 -0.094046
v -0.129443 4.200000 -0.094046
v -0.049443 0.660000 -0.152169
v -0.129443 4.200000 -0.094046
v -0.049443 4.200000 -0.152169
v 0.000000 0.660000 0.000000
v -0.129443 0.660000 -0.094046
v -0.049443 0.660000 -0.152169
v 0.000000 4.200000 0.000000
v -0.049443 4.200000 -0.152169
v -0.129443 4.200000 -0.094046
v -0.129443 0.660000 -0.094046
v -0.160000 0.660000 -0.000000
v -0.160000 4.200000 -0.000000
v -0.129443 0.660000 -0.094046
v -0.160000 4.200000 -0.000000
v -0.129443 4.200000 -0.094046
v 0.000000 0.660000 0.000000
v -0.160000 0.660000 -0.000000
v -0.129443 0.660000 -0.094046
v 0.000000 4.200000 0.000000
v -0.129443 4.200000 -0.094046
v -0.160000 4.200000 -0.000000
v -0.160000 0.660000 -0.000000
v -0.129443 0.660000 0.094046
v -0.129443 4.200000 0.094046
v -0.160000 0.660000 -0.000000
v -0.129443 4.200000 0.094046
v -0.160000 4.200000 -0.000000
v 0.000000 0.660000 0.000000
v -0.129443 0.660000 0.094046
v -0.160000 0.660000 -0.000000
v 0.000000 4.200000 0.000000
v -0.160000 4.200000 -0.000000
v -0.129443 4.200000 0.094046
v -0.129443 0.660000 0.094046
v -0.049443 0.660000 0.152169
v -0.049443 4.200000 0.152169
v -0.129443 0.660000 0.094046
v -0.049443 4.200000 0.152169
v -0.129443 4.200000 0.094046
v 0.000000 0.660000 0.000000
v -0.049443 0.660000 0.152169
v -0.129443 0.660000 0.094046
v 0.000000 4.200000 0.000000
v -0.129443 4.200000 0.094046
v -0.049443 4.200000 0.152169
v -0.049443 0.660000 0.152169
v 0.049443 0.660000 0.152169
v 0.049443 4.200000 0.152169
v -0.049443 0.660000 0.152169
v 0.049443 4.200000 0.152169
v -0.049443 4.200000 0.152169
v 0.000000 0.660000 0.000000
v 0.049443 0.660000 0.152169
v -0.049443 0.660000 0.152169
v 0.000000 4.200000 0.000000
v -0.049443 4.200000 0.152169
v 0.049443 4.200000 0.152169
v 0.049443 0.660000 0.152169
v 0.129443 0.660000 0.094046
v 0.129443 4.200000 0.094046
v 0.049443 0.660000 0.152169
v 0.129443 4.200000 0.094046
v 0.049443 4.200000 0.152169
v 0.000000 0.660000 0.000000
v 0.129443 0.660000 0.094046
v 0.049443 0.660000 0.152169
v 0.000000 4.200000 0.000000
v 0.049443 4.200000 0.152169
v 0.129443 4.200000 0.094046
v 0.129443 0.660000 0.094046
v 0.160000 0.660000 0.000000
v 0.160000 4.200000 0.000000
v 0.129443 0.660000 0.094046
v 0.160000 4.200000 0.000000
v 0.129443 4.200000 0.094046
v 0.000000 0.660000 0.000000
v 0.160000 0.660000 0.000000
v 0.129443 0.660000 0.094046
v 0.000000 4.200000 0.000000
v 0.129443 4.200000 0.094046
v 0.160000 4.200000 0.000000
vn 1.000000 0.000000 0.000000
vn 0.809017 0.000000 -0.587785
vn 0.809017 0.000000 -0.587785
vn 1.000000 0.000000 0.000000
vn 0.809017 0.000000 -0.587785
vn 1.000000 0.000000 0.000000
vn 0.000000 -1.000000 0.000000
vn 0.000000 -1.000000 0.000000
vn 0.000000 -1.000000 0.000000
vn -0.000000 1.000000 0.000000
vn -0.000000 1.000000 0.000000
vn -0.000000 1.000000 0.000000
vn 0.809017 0.000000 -0.587785
vn 0.309017 0.000000 -0.951057
vn 0.309017 0.000000 -0.951057
vn 0.809017 0.000000 -0.587785
vn 0.309017 0.000000 -0.951057
vn 0.809017 0.000000 -0.587785
vn 0.000000 -1.000000 0.000000
vn 0.000000 -1.000000 0.000000
vn 0.000000 -1.000000 0.000000
vn 0.000000 1.000000 0.000000
vn 0.000000 1.000000 0.000000
vn 0.000000 1.000000 0.000000
vn 0.309017 0.000000 -0.951057
vn -0.309017 0.000000 -0.951057
vn -0.309017 0.000000 -0.951057
vn 0.309017 0.000000 -0.951057
vn -0.309017 0.000000 -0.951057
vn 0.309017 0.000000 -0.951057
vn 0.000000 -1.000000 -0.000000
vn 0.000000 -1.000000 -0.000000
vn 0.000000 -1.000000 -0.000000
vn 0.000000 1.000000 0.000000
vn 0.000000 1.000000 0.000000
vn 0.000000 1.000000 0.000000
vn -0.309017 0.000000 -0.951057
vn -0.809017 0.000000 -0.587785
vn -0.809017 0.000000 -0.587785
vn -0.309017 0.000000 -0.951057
vn -0.809017 0.000000 -0.587785
vn -0.309017 0.000000 -0.951057
vn 0.000000 -1.000000 0.000000
vn 0.000000 -1.000000 0.000000
vn 0.000000 -1.000000 0.000000
vn 0.000000 1.000000 0.000000
vn 0.000000 1.000000 0.000000
vn 0.000000 1.000000 0.000000
vn -0.809017 0.000000 -0.587785
vn -1.000000 0.000000 -0.000000
vn -1.000000 0.000000 -0.000000
vn -0.809017 0.000000 -0.587785
vn -1.000000 0.000000 -0.000000
vn -0.809017 0.000000 -0.587785
vn 0.000000 -1.000000 0.000000
vn 0.000000 -1.000000 0.000000
vn 0.000000 -1.000000 0.000000
vn 0.000000 1.000000 0.000000
vn 0.000000 1.000000 0.000000
vn 0.000000 1.000000 0.000000
vn -1.000000 0.000000 -0.000000
vn -0.809017 -0.000000 0.587785
vn -0.809017 -0.000000 0.587785
vn -1.000000 0.000000 -0.000000
vn -0.809017 -0.000000 0.587785
vn -1.000000 0.000000 -0.000000
vn -0.000000 -1.000000 0.000000
vn -0.000000 -1.000000 0.000000
vn -0.000000 -1.000000 0.000000
vn 0.000000 1.000000 0.000000
vn 0.000000 1.000000 0.000000
vn 0.000000 1.000000 0.000000
vn -0.809017 -0.000000 0.587785
vn -0.309017 -0.000000 0.951057
vn -0.309017 -0.000000 0.951057
vn -0.809017 -0.000000 0.587785
vn -0.309017 -0.000000 0.951057
vn -0.809017 -0.000000 0.587785
vn 0.000000 -1.000000 0.000000
vn 0.000000 -1.000000 0.000000
vn 0.000000 -1.000000 0.000000
vn 0.000000 1.000000 0.000000
vn 0.000000 1.000000 0.000000
vn 0.000000 1.000000 0.000000
vn -0.309017 -0.000000 0.951057
vn 0.309017 0.000000 0.951057
vn 0.309017 0.000000 0.951057
vn -0.309017 -0.000000 0.951057
vn 0.309017 0.000000 0.951057
vn -0.309017 -0.000000 0.951057
vn 0.000000 -1.000000 0.000000
vn 0.000000 -1.000000 0.000000
vn 0.000000 -1.000000 0.000000
vn 0.000000 1.000000 -0.000000
vn 0.000000 1.000000 -0.000000
vn 0.000000 1.000000 -0.000000
vn 0.309017 0.000000 0.951057
vn 0.809017 0.000000 0.587785
vn 0.809017 0.000000 0.587785
vn 0.309017 0.000000 0.951057
vn 0.809017 0.000000 0.587785
vn 0.309017 0.000000 0.951057
vn 0.000000 -1.000000 0.000000
vn 0.000000 -1.000000 0.000000
vn 0.000000 -1.000000 0.000000
vn 0.000000 1.000000 0.000000
vn 0.000000 1.000000 0.000000
vn 0.000000 1.000000 0.000000
vn 0.809017 0.000000 0.587785
vn 1.000000 0.000000 0.000000
vn 1.000000 0.000000 0.000000
vn 0.809017 0.000000 0.587785
vn 1.000000 0.000000 0.000000
vn 0.809017 0.000000 0.587785
vn 0.000000 -1.000000 0.000000
vn 0.000000 -1.000000 0.000000
vn 0.000000 -1.000000 0.000000
vn 0.000000 1.000000 0.000000
vn 0.000000 1.000000 0.000000
vn 0.000000 1.000000 0.000000
vt 0.640000 -1.640000
vt 0.450998 -1.573228
vt 0.450998 -15.733228
vt 0.640000 -1.640000
vt 0.450998 -15.733228
vt 0.640000 -15.800000
vt 0.000000 -1.640000
vt 0.450998 -1.573228
vt 0.640000 -1.640000
vt 0.000000 -15.800000
vt 0.640000 -15.800000
vt 0.450998 -15.733228
vt 0.450998 -1.573228
vt 0.089731 -1.531960
vt 0.089731 -15.691960
vt 0.450998 -1.573228
vt 0.089731 -15.691960
vt 0.450998 -15.733228
vt 0.000000 -1.640000
vt 0.089731 -1.531960
vt 0.450998 -1.573228
vt 0.000000 -15.800000
vt 0.450998 -15.733228
vt 0.089731 -15.691960
vt 0.089731 -1.531960
vt -0.305811 -1.531960
vt -0.305811 -15.691960
vt 0.089731 -1.531960
vt -0.305811 -15.691960
vt 0.089731 -15.691960
vt 0.000000 -1.640000
vt -0.305811 -1.531960
vt 0.089731 -1.531960
vt 0.000000 -15.800000
vt 0.089731 -15.691960
vt -0.305811 -15.691960
vt -0.305811 -1.531960
vt -0.584543 -1.573228
vt -0.584543 -15.733228
vt -0.305811 -1.531960
vt -0.584543 -15.733228
vt -0.305811 -15.691960
vt 0.000000 -1.640000
vt -0.584543 -1.573228
vt -0.305811 -1.531960
vt 0.000000 -15.800000
vt -0.305811 -15.691960
vt -0.584543 -15.733228
vt -0.584543 -1.573228
vt -0.640000 -1.640000
vt -0.640000 -15.800000
vt -0.584543 -1.573228
vt -0.640000 -15.800000
vt -0.584543 -15.733228
vt 0.000000 -1.640000
vt -0.640000 -1.640000
vt -0.584543 -1.573228
vt 0.000000 -15.800000
vt -0.584543 -15.733228
vt -0.640000 -15.800000
vt -0.640000 -1.640000
vt -0.450998 -1.706772
vt -0.450998 -15.866772
vt -0.640000 -1.640000
vt -0.450998 -15.866772
vt -0.640000 -15.800000
vt 0.000000 -1.640000
vt -0.450998 -1.706772
vt -0.640000 -1.640000
vt 0.000000 -15.800000
vt -0.640000 -15.800000
vt -0.450998 -15.866772
vt -0.450998 -1.706772
vt -0.089731 -1.748040
vt -0.089731 -15.908040
vt -0.450998 -1.706772
vt -0.089731 -15.908040
vt -0.450998 -15.866772
vt 0.000000 -1.640000
vt -0.089731 -1.748040
vt -0.450998 -1.706772
vt 0.000000 -15.800000
vt -0.450998 -15.866772
vt -0.089731 -15.908040
vt -0.089731 -1.748040
vt 0.305811 -1.748040
vt 0.305811 -15.908040
vt -0.089731 -1.748040
vt 0.305811 -15.908040
vt -0.089731 -15.908040
vt 0.000000 -1.640000
vt 0.305811 -1.748040
vt -0.089731 -1.748040
vt 0.000000 -15.800000
vt -0.089731 -15.908040
vt 0.305811 -15.908040
vt 0.305811 -1.748040
vt 0.584543 -1.706772
vt 0.584543 -15.866772
vt 0.305811 -1.748040
vt 0.584543 -15.866772
vt 0.305811 -15.908040
vt 0.000000 -1.640000
vt 0.584543 -1.706772
vt 0.305811 -1.748040
vt 0.000000 -15.800000
vt 0.305811 -15.908040
vt 0.584543 -15.866772
vt 0.584543 -1.706772
vt 0.640000 -1.640000
vt 0.640000 -15.800000
vt 0.584543 -1.706772
vt 0.640000 -15.800000
vt 0.584543 -15.866772
vt 0.000000 -1.640000
vt 0.640000 -1.640000
vt 0.584543 -1.706772
vt 0.000000 -15.800000
vt 0.584543 -15.866772
vt 0.640000 -15.800000
f 73/73/73 74/74/74 75/75/75
f 76/76/76 77/77/77 78/78/78
f 79/79/79 80/80/80 81/81/81
f 82/82/82 83/83/83 84/84/84
f 85/85/85 86/86/86 87/87/87
f 88/88/88 89/89/89 90/90/90
f 91/91/91 92/92/92 93/93/93
f 94/94/94 95/95/95 96/96/96
f 97/97/97 98/98/98 99/99/99
f 100/100/100 101/101/101 102/102/102
f 103/103/103 104/104/104 105/105/105
f 106/106/106 107/107/107 108/108/108
f 109/109/109 110/110/110 111/111/111
f 112/112/112 113/113/113 114/114/114
f 115/115/115 116/116/116 117/117/117
f 118/118/118 119/119/119 120/120/120
f 121/121/121 122/122/122 123/123/123
f 124/124/124 125/125/125 126/126/126
f 127/127/127 128/128/128 129/129/129
f 130/130/130 131/131/131 132/132/132
f 133/133/133 134/134/134 135/135/135
f 136/136/136 137/137/137 138/138/138
f 139/139/139 140/140/140 141/141/141
f 142/142/142 143/143/143 144/144/144
f 145/145/145 146/146/146 147/147/147
f 148/148/148 149/149/149 150/150/150
f 151/151/151 152/152/152 153/153/153
f 154/154/154 155/155/155 156/156/156
f 157/157/157 158/158/158 159/159/159
f 160/160/160 161/161/161 162/162/162
f 163/163/163 164/164/164 165/165/165
f 166/166/166 167/167/167 168/168/168
f 169/169/169 170/170/170 171/171/171
f 172/172/172 173/173/173 174/174/174
f 175/175/175 176/176/176 177/177/177
f 178/178/178 179/179/179 180/180/180
f 181/181/181 182/182/182 183/183/183
f 184/184/184 185/185/185 186/186/186
f 187/187/187 188/188/188 189/189/189
f 190/190/190 191/191/191 192/192/192
g Foliage
usemtl Foliage
v 1.500000 2.800000 0.000000
v 1.149067 2.800000 -0.964181
v 0.723912 4.200000 -0.607434
v 1.500000 2.800000 0.000000
v 0.723912 4.200000 -0.607434
v 0.945000 4.200000 0.000000
v 0.000000 2.800000 0.000000
v 1.149067 2.800000 -0.964181
v 1.500000 2.800000 0.000000
v 0.000000 4.200000 0.000000
v 0.945000 4.200000 0.000000
v 0.723912 4.200000 -0.607434
v 1.149067 2.800000 -0.964181
v 0.260472 2.800000 -1.477212
v 0.164098 4.200000 -0.930643
v 1.149067 2.800000 -0.964181
v 0.164098 4.200000 -0.930643
v 0.723912 4.200000 -0.607434
v 0.000000 2.800000 0.000000
v 0.260472 2.800000 -1.477212
v 1.149067 2.800000 -0.964181
v 0.000000 4.200000 0.000000
v 0.723912 4.200000 -0.607434
v 0.164098 4.200000 -0.930643
v 0.260472 2.800000 -1.477212
v -0.750000 2.800000 -1.299038
v -0.472500 4.200000 -0.818394
v 0.260472 2.800000 -1.477212
v -0.472500 4.200000 -0.818394
v 0.164098 4.200000 -0.930643
v 0.000000 2.800000 0.000000
v -0.750000 2.800000 -1.299038
v 0.260472 2.800000 -1.477212
v 0.000000 4.200000 0.000000
v 0.164098 4.200000 -0.930643
v -0.472500 4.200000 -0.818394
v -0.750000 2.800000 -1.299038
v -1.409539 2.800000 -0.513030
v -0.888010 4.200000 -0.323209
v -0.750000 2.800000 -1.299038
v -0.888010 4.200000 -0.323209
v -0.472500 4.200000 -0.818394
v 0.000000 2.800000 0.000000
v -1.409539 2.800000 -0.513030
v -0.750000 2.800000 -1.299038
v 0.000000 4.200000 0.000000
v -0.472500 4.200000 -0.818394
v -0.888010 4.200000 -0.323209
v -1.409539 2.800000 -0.513030
v -1.409539 2.800000 0.513030
v -0.888010 4.200000 0.323209
v -1.409539 2.800000 -0.513030
v -0.888010 4.200000 0.323209
v -0.888010 4.200000 -0.323209
v 0.000000 2.800000 0.000000
v -1.409539 2.800000 0.513030
v -1.409539 2.800000 -0.513030
v 0.000000 4.200000 0.000000
v -0.888010 4.200000 -0.323209
v -0.888010 4.200000 0.323209
v -1.409539 2.800000 0.513030
v -0.750000 2.800000 1.299038
v -0.472500 4.200000 0.818394
v -1.409539 2.800000 0.513030
v -0.472500 4.200000 0.818394
v -0.888010 4.200000 0.323209
v 0.000000 2.800000 0.000000
v -0.750000 2.800000 1.299038
v -1.409539 2.800000 0.513030
v 0.000000 4.200000 0.000000
v -0.888010 4.200000 0.323209
v -0.472500 4.200000 0.818394
v -0.750000 2.800000 1.299038
v 0.260472 2.800000 1.477212
v 0.164098 4.200000 0.930643
v -0.750000 2.800000 1.299038
v 0.164098 4.200000 0.930643
v -0.472500 4.200000 0.818394
v 0.000000 2.800000 0.000000
v 0.260472 2.800000 1.477212
v -0.750000 2.800000 1.299038
v 0.000000 4.200000 0.000000
v -0.472500 4.200000 0.818394
v 0.164098 4.200000 0.930643
v 0.260472 2.800000 1.477212
v 1.149067 2.800000 0.964181
v 0.723912 4.200000 0.607434
v 0.260472 2.800000 1.477212
v 0.723912 4.200000 0.607434
v 0.164098 4.200000 0.930643
v 0.000000 2.800000 0.000000
v 1.149067 2.800000 0.964181
v 0.260472 2.800000 1.477212
v 0.000000 4.200000 0.000000
v 0.164098 4.200000 0.930643
v 0.723912 4.200000 0.607434
v 1.149067 2.800000 0.964181
v 1.500000 2.800000 0.000000
v 0.945000 4.200000 0.000000
v 1.149067 2.800000 0.964181
v 0.945000 4.200000 0.000000
v 0.723912 4.200000 0.607434
v 0.000000 2.800000 0.000000
v 1.500000 2.800000 0.000000
v 1.149067 2.800000 0.964181
v 0.000000 4.200000 0.000000
v 0.723912 4.200000 0.607434
v 0.945000 4.200000 0.000000
v 1.650000 3.900000 0.000000
v 1.263973 3.900000 -1.060600
v 0.796303 5.300000 -0.668178
v 1.650000 3.900000 0.000000
v 0.796303 5.300000 -0.668178
v 1.039500 5.300000 0.000000
v 0.000000 3.900000 0.000000
v 1.263973 3.900000 -1.060600
v 1.650000 3.900000 0.000000
v 0.000000 5.300000 0.000000
v 1.039500 5.300000 0.000000
v 0.796303 5.300000 -0.668178
v 1.263973 3.900000 -1.060600
v 0.286519 3.900000 -1.624933
v 0.180507 5.300000 -1.023708
v 1.263973 3.900000 -1.060600
v 0.180507 5.300000 -1.023708
v 0.796303 5.300000 -0.668178
v 0.000000 3.900000 0.000000
v 0.286519 3.900000 -1.624933
v 1.263973 3.900000 -1.060600
v 0.000000 5.300000 0.000000
v 0.796303 5.300000 -0.668178
v 0.180507 5.300000 -1.023708
v 0.286519 3.900000 -1.624933
v -0.825000 3.900000 -1.428942
v -0.519750 5.300000 -0.900233
v 0.286519 3.900000 -1.624933
v -0.519750 5.300000 -0.900233
v 0.180507 5.300000 -1.023708
v 0.000000 3.900000 0.000000
v -0.825000 3.900000 -1.428942
v 0.286519 3.900000 -1.624933
v 0.000000 5.300000 0.000000
v 0.180507 5.300000 -1.023708
v -0.519750 5.300000 -0.900233
v -0.825000 3.900000 -1.428942
v -1.550493 3.900000 -0.564333
v -0.976810 5.300000 -0.355530
v -0.825000 3.900000 -1.428942
v -0.976810 5.300000 -0.355530
v -0.519750 5.300000 -0.900233
v 0.000000 3.900000 0.000000
v -1.550493 3.900000 -0.564333
v -0.825000 3.900000 -1.428942
v 0.000000 5.300000 0.000000
v -0.519750 5.300000 -0.900233
v -0.976810 5.300000 -0.355530
v -1.550493 3.900000 -0.564333
v -1.550493 3.900000 0.564333
v -0.976810 5.300000 0.355530
v -1.550493 3.900000 -0.564333
v -0.976810 5.300000 0.355530
v -0.976810 5.300000 -0.355530
v 0.000000 3.900000 0.000000
v -1.550493 3.900000 0.564333
v -1.550493 3.900000 -0.564333
v 0.000000 5.300000 0.000000
v -0.976810 5.300000 -0.355530
v -0.976810 5.300000 0.355530
v -1.550493 3.900000 0.564333
v -0.825000 3.900000 1.428942
v -0.519750 5.300000 0.900233
v -1.550493 3.900000 0.564333
v -0.519750 5.300000 0.900233
v -0.976810 5.300000 0.355530
v 0.000000 3.900000 0.000000
v -0.825000 3.900000 1.428942
v -1.550493 3.900000 0.564333
v 0.000000 5.300000 0.000000
v -0.976810 5.300000 0.355530
v -0.519750 5.300000 0.900233
v -0.825000 3.900000 1.428942
v 0.286519 3.900000 1.624933
v 0.180507 5.300000 1.023708
v -0.825000 3.900000 1.428942
v 0.180507 5.300000 1.023708
v -0.519750 5.300000 0.900233
v 0.000000 3.900000 0.000000
v 0.286519 3.900000 1.624933
v -0.825000 3.900000 1.428942
v 0.000000 5.300000 0.000000
v -0.519750 5.300000 0.900233
v 0.180507 5.300000 1.023708
v 0.286519 3.900000 1.624933
v 1.263973 3.900000 1.060600
v 0.796303 5.300000 0.668178
v 0.286519 3.900000 1.624933
v 0.796303 5.300000 0.668178
v 0.180507 5.300000 1.023708
v 0.000000 3.900000 0.000000
v 1.263973 3.900000 1.060600
v 0.286519 3.900000 1.624933
v 0.000000 5.300000 0.000000
v 0.180507 5.300000 1.023708
v 0.796303 5.300000 0.668178
v 1.263973 3.900000 1.060600
v 1.650000 3.900000 0.000000
v 1.039500 5.300000 0.000000
v 1.263973 3.900000 1.060600
v 1.039500 5.300000 0.000000
v 0.796303 5.300000 0.668178
v 0.000000 3.900000 0.000000
v 1.650000 3.900000 0.000000
v 1.263973 3.900000 1.060600
v 0.000000 5.300000 0.000000
v 0.796303 5.300000 0.668178
v 1.039500 5.300000 0.000000
v 0.900000 4.850000 0.000000
v 0.689440 4.850000 -0.578509
v 0.434347 6.250000 -0.364461
v 0.900000 4.850000 0.000000
v 0.434347 6.250000 -0.364461
v 0.567000 6.250000 0.000000
v 0.000000 4.850000 0.000000
v 0.689440 4.850000 -0.578509
v 0.900000 4.850000 0.000000
v 0.000000 6.250000 0.000000
v 0.567000 6.250000 0.000000
v 0.434347 6.250000 -0.364461
v 0.689440 4.850000 -0.578509
v 0.156283 4.850000 -0.886327
v 0.098459 6.250000 -0.558386
v 0.689440 4.850000 -0.578509
v 0.098459 6.250000 -0.558386
v 0.434347 6.250000 -0.364461
v 0.000000 4.850000 0.000000
v 0.156283 4.850000 -0.886327
v 0.689440 4.850000 -0.578509
v 0.000000 6.250000 0.000000
v 0.434347 6.250000 -0.364461
v 0.098459 6.250000 -0.558386
v 0.156283 4.850000 -0.886327
v -0.450000 4.850000 -0.779423
v -0.283500 6.250000 -0.491036
v 0.156283 4.850000 -0.886327
v -0.283500 6.250000 -0.491036
v 0.098459 6.250000 -0.558386
v 0.000000 4.850000 0.000000
v -0.450000 4.850000 -0.779423
v 0.156283 4.850000 -0.886327
v 0.000000 6.250000 0.000000
v 0.098459 6.250000 -0.558386
v -0.283500 6.250000 -0.491036
v -0.450000 4.850000 -0.779423
v -0.845723 4.850000 -0.307818
v -0.532806 6.250000 -0.193925
v -0.450000 4.850000 -0.779423
v -0.532806 6.250000 -0.193925
v -0.283500 6.250000 -0.491036
v 0.000000 4.850000 0.000000
v -0.845723 4.850000 -0.307818
v -0.450000 4.850000 -0.779423
v 0.000000 6.250000 0.000000
v -0.283500 6.250000 -0.491036
v -0.532806 6.250000 -0.193925
v -0.845723 4.850000 -0.307818
v -0.845723 4.850000 0.307818
v -0.532806 6.250000 0.193925
v -0.845723 4.850000 -0.307818
v -0.532806 6.250000 0.193925
v -0.532806 6.250000 -0.193925
v 0.000000 4.850000 0.000000
v -0.845723 4.850000 0.307818
v -0.845723 4.850000 -0.307818
v 0.000000 6.250000 0.000000
v -0.532806 6.250000 -0.193925
v -0.532806 6.250000 0.193925
v -0.845723 4.850000 0.307818
v -0.450000 4.850000 0.779423
v -0.283500 6.250000 0.491036
v -0.845723 4.850000 0.307818
v -0.283500 6.250000 0.491036
v -0.532806 6.250000 0.193925
v 0.000000 4.850000 0.000000
v -0.450000 4.850000 0.779423
v -0.845723 4.850000 0.307818
v 0.000000 6.250000 0.000000
v -0.532806 6.250000 0.193925
v -0.283500 6.250000 0.491036
v -0.450000 4.850000 0.779423
v 0.156283 4.850000 0.886327
v 0.098459 6.250000 0.558386
v -0.450000 4.850000 0.779423
v 0.098459 6.250000 0.558386
v -0.283500 6.250000 0.491036
v 0.000000 4.850000 0.000000
v 0.156283 4.850000 0.886327
v -0.450000 4.850000 0.779423
v 0.000000 6.250000 0.000000
v -0.283500 6.250000 0.491036
v 0.098459 6.250000 0.558386
v 0.156283 4.850000 0.886327
v 0.689440 4.850000 0.578509
v 0.434347 6.250000 0.364461
v 0.156283 4.850000 0.886327
v 0.434347 6.250000 0.364461
v 0.098459 6.250000 0.558386
v 0.000000 4.850000 0.000000
v 0.689440 4.850000 0.578509
v 0.156283 4.850000 0.886327
v 0.000000 6.250000 0.000000
v 0.098459 6.250000 0.558386
v 0.434347 6.250000 0.364461
v 0.689440 4.850000 0.578509
v 0.900000 4.850000 0.000000
v 0.567000 6.250000 0.000000
v 0.689440 4.850000 0.578509
v 0.567000 6.250000 0.000000
v 0.434347 6.250000 0.364461
v 0.000000 4.850000 0.000000
v 0.900000 4.850000 0.000000
v 0.689440 4.850000 0.578509
v 0.000000 6.250000 0.000000
v 0.434347 6.250000 0.364461
v 0.567000 6.250000 0.000000
vn 1.000000 0.000000 0.000000
vn 0.766044 0.000000 -0.642788
vn 0.766044 0.000000 -0.642788
vn 1.000000 0.000000 0.000000
vn 0.766044 0.000000 -0.642788
vn 1.000000 0.000000 0.000000
vn 0.000000 -1.000000 0.000000
vn 0.000000 -1.000000 0.000000
vn 0.000000 -1.000000 0.000000
vn -0.000000 1.000000 0.000000
vn -0.000000 1.000000 0.000000
vn -0.000000 1.000000 0.000000
vn 0.766044 0.000000 -0.642788
vn 0.173648 0.000000 -0.984808
vn 0.173648 0.000000 -0.984808
vn 0.766044 0.000000 -0.642788
vn 0.173648 0.000000 -0.984808
vn 0.766044 0.000000 -0.642788
vn 0.000000 -1.000000 0.000000
vn 0.000000 -1.000000 0.000000
vn 0.000000 -1.000000 0.000000
vn 0.000000 1.000000 0.000000
vn 0.000000 1.000000 0.000000
vn 0.000000 1.000000 0.000000
vn 0.173648 0.000000 -0.984808
vn -0.500000 0.000000 -0.866025
vn -0.500000 0.000000 -0.866025
vn 0.173648 0.000000 -0.984808
vn -0.500000 0.000000 -0.866025
vn 0.173648 0.000000 -0.984808
vn 0.000000 -1.000000 -0.000000
vn 0.000000 -1.000000 -0.000000
vn 0.000000 -1.000000 -0.000000
vn 0.000000 1.000000 0.000000
vn 0.000000 1.000000 0.000000
vn 0.000000 1.000000 0.000000
vn -0.500000 0.000000 -0.866025
vn -0.939693 0.000000 -0.342020
vn -0.939693 0.000000 -0.342020
vn -0.500000 0.000000 -0.866025
vn -0.939693 0.000000 -0.342020
vn -0.500000 0.000000 -0.866025
vn 0.000000 -1.000000 0.000000
vn 0.000000 -1.000000 0.000000
vn 0.000000 -1.000000 0.000000
vn 0.000000 1.000000 0.000000
vn 0.000000 1.000000 0.000000
vn 0.000000 1.000000 0.000000
vn -0.939693 0.000000 -0.342020
vn -0.939693 -0.000000 0.342020
vn -0.939693 -0.000000 0.342020
vn -0.939693 0.000000 -0.342020
vn -0.939693 -0.000000 0.342020
vn -0.939693 0.000000 -0.342020
vn -0.000000 -1.000000 0.000000
vn -0.000000 -1.000000 0.000000
vn -0.000000 -1.000000 0.000000
vn 0.000000 1.000000 0.000000
vn 0.000000 1.000000 0.000000
vn 0.000000 1.000000 0.000000
vn -0.939693 -0.000000 0.342020
vn -0.500000 -0.000000 0.866025
vn -0.500000 -0.000000 0.866025
vn -0.939693 -0.000000 0.342020
vn -0.500000 -0.000000 0.866025
vn -0.939693 -0.000000 0.342020
vn 0.000000 -1.000000 0.000000
vn 0.000000 -1.000000 0.000000
vn 0.000000 -1.000000 0.000000
vn 0.000000 1.000000 0.000000
vn 0.000000 1.000000 0.000000
vn 0.000000 1.000000 0.000000
vn -0.500000 -0.000000 0.866025
vn 0.173648 0.000000 0.984808
vn 0.173648 0.000000 0.984808
vn -0.500000 -0.000000 0.866025
vn 0.173648 0.000000 0.984808
vn -0.500000 -0.000000 0.866025
vn 0.000000 -1.000000 0.000000
vn 0.000000 -1.000000 0.000000
vn 0.000000 -1.000000 0.000000
vn 0.000000 1.000000 -0.000000
vn 0.000000 1.000000 -0.000000
vn 0.000000 1.000000 -0.000000
vn 0.173648 0.000000 0.984808
vn 0.766044 0.000000 0.642788
vn 0.766044 0.000000 0.642788
vn 0.173648 0.000000 0.984808
vn 0.766044 0.000000 0.642788
vn 0.173648 0.000000 0.984808
vn 0.000000 -1.000000 0.000000
vn 0.000000 -1.000000 0.000000
vn 0.000000 -1.000000 0.000000
vn 0.000000 1.000000 0.000000
vn 0.000000 1.000000 0.000000
vn 0.000000 1.000000 0.000000
vn 0.766044 0.000000 0.642788
vn 1.000000 0.000000 0.000000
vn 1.000000 0.000000 0.000000
vn 0.766044 0.000000 0.642788
vn 1.000000 0.000000 0.000000
vn 0.766044 0.000000 0.642788
vn 0.000000 -1.000000 0.000000
vn 0.000000 -1.000000 0.000000
vn 0.000000 -1.000000 0.000000
vn 0.000000 1.000000 0.000000
vn 0.000000 1.000000 0.000000
vn 0.000000 1.000000 0.000000
vn 1.000000 0.000000 0.000000
vn 0.766044 0.000000 -0.642788
vn 0.766044 0.000000 -0.642788
vn 1.000000 0.000000 0.000000
vn 0.766044 0.000000 -0.642788
vn 1.000000 0.000000 0.000000
vn 0.000000 -1.000000 0.000000
vn 0.000000 -1.000000 0.000000
vn 0.000000 -1.000000 0.000000
vn -0.000000 1.000000 0.000000
vn -0.000000 1.000000 0.000000
vn -0.000000 1.000000 0.000000
vn 0.766044 0.000000 -0.642788
vn 0.173648 0.000000 -0.984808
vn 0.173648 0.000000 -0.984808
vn 0.766044 0.000000 -0.642788
vn 0.173648 0.000000 -0.984808
vn 0.766044 0.000000 -0.642788
vn 0.000000 -1.000000 0.000000
vn 0.000000 -1.000000 0.000000
vn 0.000000 -1.000000 0.000000
vn 0.000000 1.000000 0.000000
vn 0.000000 1.000000 0.000000
vn 0.000000 1.000000 0.000000
vn 0.173648 0.000000 -0.984808
vn -0.500000 0.000000 -0.866025
vn -0.500000 0.000000 -0.866025
vn 0.173648 0.000000 -0.984808
vn -0.500000 0.000000 -0.866025
vn 0.173648 0.000000 -0.984808
vn 0.000000 -1.000000 -0.000000
vn 0.000000 -1.000000 -0.000000
vn 0.000000 -1.000000 -0.000000
vn 0.000000 1.000000 0.000000
vn 0.000000 1.000000 0.000000
vn 0.000000 1.000000 0.000000
vn -0.500000 0.000000 -0.866025
vn -0.939693 0.000000 -0.342020
vn -0.939693 0.000000 -0.342020
vn -0.500000 0.000000 -0.866025
vn -0.939693 0.000000 -0.342020
vn -0.500000 0.000000 -0.866025
vn 0.000000 -1.000000 0.000000
vn 0.000000 -1.000000 0.000000
vn 0.000000 -1.000000 0.000000
vn 0.000000 1.000000 0.000000
vn 0.000000 1.000000 0.000000
vn 0.000000 1.000000 0.000000
vn -0.939693 0.000000 -0.342020
vn -0.939693 -0.000000 0.342020
vn -0.939693 -0.000000 0.342020
vn -0.939693 0.000000 -0.342020
vn -0.939693 -0.000000 0.342020
vn -0.939693 0.000000 -0.342020
vn -0.000000 -1.000000 0.000000
vn -0.000000 -1.000000 0.000000
vn -0.000000 -1.000000 0.000000
vn 0.000000 1.000000 0.000000
vn 0.000000 1.000000 0.000000
vn 0.000000 1.000000 0.000000
vn -0.939693 -0.000000 0.342020
vn -0.500000 -0.000000 0.866025
vn -0.500000 -0.000000 0.866025
vn -0.939693 -0.000000 0.342020
vn -0.500000 -0.000000 0.866025
vn -0.939693 -0.000000 0.342020
vn 0.000000 -1.000000 0.000000
vn 0.000000 -1.000000 0.000000
vn 0.000000 -1.000000 0.000000
vn 0.000000 1.000000 0.000000
vn 0.000000 1.000000 0.000000
vn 0.000000 1.000000 0.000000
vn -0.500000 -0.000000 0.866025
vn 0.173648 0.000000 0.984808
vn 0.173648 0.000000 0.984808
vn -0.500000 -0.000000 0.866025
vn 0.173648 0.000000 0.984808
vn -0.500000 -0.000000 0.866025
vn 0.000000 -1.000000 0.000000
vn 0.000000 -1.000000 0.000000
vn 0.000000 -1.000000 0.000000
vn 0.000000 1.000000 -0.000000
vn 0.000000 1.000000 -0.000000
vn 0.000000 1.000000 -0.000000
vn 0.173648 0.000000 0.984808
vn 0.766044 0.000000 0.642788
vn 0.766044 0.000000 0.642788
vn 0.173648 0.000000 0.984808
vn 0.766044 0.000000 0.642788
vn 0.173648 0.000000 0.984808
vn 0.000000 -1.000000 0.000000
vn 0.000000 -1.000000 0.000000
vn 0.000000 -1.000000 0.000000
vn 0.000000 1.000000 0.000000
vn 0.000000 1.000000 0.000000
vn 0.000000 1.000000 0.000000
vn 0.766044 0.000000 0.642788
vn 1.000000 0.000000 0.000000
vn 1.000000 0.000000 0.000000
vn 0.766044 0.000000 0.642788
vn 1.000000 0.000000 0.000000
vn 0.766044 0.000000 0.642788
vn 0.000000 -1.000000 0.000000
vn 0.000000 -1.000000 0.000000
vn 0.000000 -1.000000 0.000000
vn 0.000000 1.000000 0.000000
vn 0.000000 1.000000 0.000000
vn 0.000000 1.000000 0.000000
vn 1.000000 0.000000 0.000000
vn 0.766044 0.000000 -0.642788
vn 0.766044 0.000000 -0.642788
vn 1.000000 0.000000 0.000000
vn 0.766044 0.000000 -0.642788
vn 1.000000 0.000000 0.000000
vn 0.000000 -1.000000 0.000000
vn 0.000000 -1.000000 0.000000
vn 0.000000 -1.000000 0.000000
vn -0.000000 1.000000 0.000000
vn -0.000000 1.000000 0.000000
vn -0.000000 1.000000 0.000000
vn 0.766044 0.000000 -0.642788
vn 0.173648 0.000000 -0.984808
vn 0.173648 0.000000 -0.984808
vn 0.766044 0.000000 -0.642788
vn 0.173648 0.000000 -0.984808
vn 0.766044 0.000000 -0.642788
vn 0.000000 -1.000000 0.000000
vn 0.000000 -1.000000 0.000000
vn 0.000000 -1.000000 0.000000
vn 0.000000 1.000000 0.000000
vn 0.000000 1.000000 0.000000
vn 0.000000 1.000000 0.000000
vn 0.173648 0.000000 -0.984808
vn -0.500000 0.000000 -0.866025
vn -0.500000 0.000000 -0.866025
vn 0.173648 0.000000 -0.984808
vn -0.500000 0.000000 -0.866025
vn 0.173648 0.000000 -0.984808
vn 0.000000 -1.000000 -0.000000
vn 0.000000 -1.000000 -0.000000
vn 0.000000 -1.000000 -0.000000
vn 0.000000 1.000000 0.000000
vn 0.000000 1.000000 0.000000
vn 0.000000 1.000000 0.000000
vn -0.500000 0.000000 -0.866025
vn -0.939693 0.000000 -0.342020
vn -0.939693 0.000000 -0.342020
vn -0.500000 0.000000 -0.866025
vn -0.939693 0.000000 -0.342020
vn -0.500000 0.000000 -0.866025
vn 0.000000 -1.000000 0.000000
vn 0.000000 -1.000000 0.000000
vn 0.000000 -1.000000 0.000000
vn 0.000000 1.000000 0.000000
vn 0.000000 1.000000 0.000000
vn 0.000000 1.000000 0.000000
vn -0.939693 0.000000 -0.342020
vn -0.939693 -0.000000 0.342020
vn -0.939693 -0.000000 0.342020
vn -0.939693 0.000000 -0.342020
vn -0.939693 -0.000000 0.342020
vn -0.939693 0.000000 -0.342020
vn -0.000000 -1.000000 0.000000
vn -0.000000 -1.000000 0.000000
vn -0.000000 -1.000000 0.000000
vn 0.000000 1.000000 0.000000
vn 0.000000 1.000000 0.000000
vn 0.000000 1.000000 0.000000
vn -0.939693 -0.000000 0.342020
vn -0.500000 -0.000000 0.866025
vn -0.500000 -0.000000 0.866025
vn -0.939693 -0.000000 0.342020
vn -0.500000 -0.000000 0.866025
vn -0.939693 -0.000000 0.342020
vn 0.000000 -1.000000 0.000000
vn 0.000000 -1.000000 0.000000
vn 0.000000 -1.000000 0.000000
vn 0.000000 1.000000 0.000000
vn 0.000000 1.000000 0.000000
vn 0.000000 1.000000 0.000000
vn -0.500000 -0.000000 0.866025
vn 0.173648 0.000000 0.984808
vn 0.173648 0.000000 0.984808
vn -0.500000 -0.000000 0.866025
vn 0.173648 0.000000 0.984808
vn -0.500000 -0.000000 0.866025
vn 0.000000 -1.000000 0.000000
vn 0.000000 -1.000000 0.000000
vn 0.000000 -1.000000 0.000000
vn 0.000000 1.000000 -0.000000
vn 0.000000 1.000000 -0.000000
vn 0.000000 1.000000 -0.000000
vn 0.173648 0.000000 0.984808
vn 0.766044 0.000000 0.642788
vn 0.766044 0.000000 0.642788
vn 0.173648 0.000000 0.984808
vn 0.766044 0.000000 0.642788
vn 0.173648 0.000000 0.984808
vn 0.000000 -1.000000 0.000000
vn 0.000000 -1.000000 0.000000
vn 0.000000 -1.000000 0.000000
vn 0.000000 1.000000 0.000000
vn 0.000000 1.000000 0.000000
vn 0.000000 1.000000 0.000000
vn 0.766044 0.000000 0.642788
vn 1.000000 0.000000 0.000000
vn 1.000000 0.000000 0.000000
vn 0.766044 0.000000 0.642788
vn 1.000000 0.000000 0.000000
vn 0.766044 0.000000 0.642788
vn 0.000000 -1.000000 0.000000
vn 0.000000 -1.000000 0.000000
vn 0.000000 -1.000000 0.000000
vn 0.000000 1.000000 0.000000
vn 0.000000 1.000000 0.000000
vn 0.000000 1.000000 0.000000
vt 6.000000 -10.200000
vt 3.911698 -9.515431
vt 2.464370 -15.368722
vt 6.000000 -10.200000
vt 2.464370 -15.368722
vt 3.780000 -15.800000
vt 0.000000 -10.200000
vt 3.911698 -9.515431
vt 6.000000 -10.200000
vt 0.000000 -15.800000
vt 3.780000 -15.800000
vt 2.464370 -15.368722
vt 3.911698 -9.515431
vt -0.006931 -9.151180
vt -0.004367 -15.139243
vt 3.911698 -9.515431
vt -0.004367 -15.139243
vt 2.464370 -15.368722
vt 0.000000 -10.200000
vt -0.006931 -9.151180
vt 3.911698 -9.515431
vt 0.000000 -15.800000
vt 2.464370 -15.368722
vt -0.004367 -15.139243
vt -0.006931 -9.151180
vt -3.922317 -9.277683
vt -2.471060 -15.218940
vt -0.006931 -9.151180
vt -2.471060 -15.218940
vt -0.004367 -15.139243
vt 0.000000 -10.200000
vt -3.922317 -9.277683
vt -0.006931 -9.151180
vt 0.000000 -15.800000
vt -0.004367 -15.139243
vt -2.471060 -15.218940
vt -3.922317 -9.277683
vt -6.002407 -9.835749
vt -3.781517 -15.570522
vt -3.922317 -9.277683
vt -3.781517 -15.570522
vt -2.471060 -15.218940
vt 0.000000 -10.200000
vt -6.002407 -9.835749
vt -3.922317 -9.277683
vt 0.000000 -15.800000
vt -2.471060 -15.218940
vt -3.781517 -15.570522
vt -6.002407 -9.835749
vt -5.273904 -10.564251
vt -3.322560 -16.029478
vt -6.002407 -9.835749
vt -3.322560 -16.029478
vt -3.781517 -15.570522
vt 0.000000 -10.200000
vt -5.273904 -10.564251
vt -6.002407 -9.835749
vt 0.000000 -15.800000
vt -3.781517 -15.570522
vt -3.322560 -16.029478
vt -5.273904 -10.564251
vt -2.077683 -11.122317
vt -1.308940 -16.381060
vt -5.273904 -10.564251
vt -1.308940 -16.381060
vt -3.322560 -16.029478
vt 0.000000 -10.200000
vt -2.077683 -11.122317
vt -5.273904 -10.564251
vt 0.000000 -15.800000
vt -3.322560 -16.029478
vt -1.308940 -16.381060
vt -2.077683 -11.122317
vt 2.090709 -11.248820
vt 1.317147 -16.460757
vt -2.077683 -11.122317
vt 1.317147 -16.460757
vt -1.308940 -16.381060
vt 0.000000 -10.200000
vt 2.090709 -11.248820
vt -2.077683 -11.122317
vt 0.000000 -15.800000
vt -1.308940 -16.381060
vt 1.317147 -16.460757
vt 2.090709 -11.248820
vt 5.280835 -10.884569
vt 3.326926 -16.231278
vt 2.090709 -11.248820
vt 3.326926 -16.231278
vt 1.317147 -16.460757
vt 0.000000 -10.200000
vt 5.280835 -10.884569
vt 2.090709 -11.248820
vt 0.000000 -15.800000
vt 1.317147 -16.460757
vt 3.326926 -16.231278
vt 5.280835 -10.884569
vt 6.000000 -10.200000
vt 3.780000 -15.800000
vt 5.280835 -10.884569
vt 3.780000 -15.800000
vt 3.326926 -16.231278
vt 0.000000 -10.200000
vt 6.000000 -10.200000
vt 5.280835 -10.884569
vt 0.000000 -15.800000
vt 3.326926 -16.231278
vt 3.780000 -15.800000
vt 6.600000 -14.600000
vt 4.302868 -13.846974
vt 2.710807 -19.725594
vt 6.600000 -14.600000
vt 2.710807 -19.725594
vt 4.158000 -20.200000
vt 0.000000 -14.600000
vt 4.302868 -13.846974
vt 6.600000 -14.600000
vt 0.000000 -20.200000
vt 4.158000 -20.200000
vt 2.710807 -19.725594
vt 4.302868 -13.846974
vt -0.007624 -13.446298
vt -0.004803 -19.473168
vt 4.302868 -13.846974
vt -0.004803 -19.473168
vt 2.710807 -19.725594
vt 0.000000 -14.600000
vt -0.007624 -13.446298
vt 4.302868 -13.846974
vt 0.000000 -20.200000
vt 2.710807 -19.725594
vt -0.004803 -19.473168
vt -0.007624 -13.446298
vt -4.314549 -13.585451
vt -2.718166 -19.560834
vt -0.007624 -13.446298
vt -2.718166 -19.560834
vt -0.004803 -19.473168
vt 0.000000 -14.600000
vt -4.314549 -13.585451
vt -0.007624 -13.446298
vt 0.000000 -20.200000
vt -0.004803 -19.473168
vt -2.718166 -19.560834
vt -4.314549 -13.585451
vt -6.602648 -14.199323
vt -4.159668 -19.947574
vt -4.314549 -13.585451
vt -4.159668 -19.947574
vt -2.718166 -19.560834
vt 0.000000 -14.600000
vt -6.602648 -14.199323
vt -4.314549 -13.585451
vt 0.000000 -20.200000
vt -2.718166 -19.560834
vt -4.159668 -19.947574
vt -6.602648 -14.199323
vt -5.801295 -15.000677
vt -3.654816 -20.452426
vt -6.602648 -14.199323
vt -3.654816 -20.452426
vt -4.159668 -19.947574
vt 0.000000 -14.600000
vt -5.801295 -15.000677
vt -6.602648 -14.199323
vt 0.000000 -20.200000
vt -4.159668 -19.947574
vt -3.654816 -20.452426
vt -5.801295 -15.000677
vt -2.285451 -15.614549
vt -1.439834 -20.839166
vt -5.801295 -15.000677
vt -1.439834 -20.839166
vt -3.654816 -20.452426
vt 0.000000 -14.600000
vt -2.285451 -15.614549
vt -5.801295 -15.000677
vt 0.000000 -20.200000
vt -3.654816 -20.452426
vt -1.439834 -20.839166
vt -2.285451 -15.614549
vt 2.299780 -15.753702
vt 1.448862 -20.926832
vt -2.285451 -15.614549
vt 1.448862 -20.926832
vt -1.439834 -20.839166
vt 0.000000 -14.600000
vt 2.299780 -15.753702
vt -2.285451 -15.614549
vt 0.000000 -20.200000
vt -1.439834 -20.839166
vt 1.448862 -20.926832
vt 2.299780 -15.753702
vt 5.808919 -15.353026
vt 3.659619 -20.674406
vt 2.299780 -15.753702
vt 3.659619 -20.674406
vt 1.448862 -20.926832
vt 0.000000 -14.600000
vt 5.808919 -15.353026
vt 2.299780 -15.753702
vt 0.000000 -20.200000
vt 1.448862 -20.926832
vt 3.659619 -20.674406
vt 5.808919 -15.353026
vt 6.600000 -14.600000
vt 4.158000 -20.200000
vt 5.808919 -15.353026
vt 4.158000 -20.200000
vt 3.659619 -20.674406
vt 0.000000 -14.600000
vt 6.600000 -14.600000
vt 5.808919 -15.353026
vt 0.000000 -20.200000
vt 3.659619 -20.674406
vt 4.158000 -20.200000
vt 3.600000 -18.400000
vt 2.347019 -17.989259
vt 1.478622 -23.741233
vt 3.600000 -18.400000
vt 1.478622 -23.741233
vt 2.268000 -24.000000
vt 0.000000 -18.400000
vt 2.347019 -17.989259
vt 3.600000 -18.400000
vt 0.000000 -24.000000
vt 2.268000 -24.000000
vt 1.478622 -23.741233
vt 2.347019 -17.989259
vt -0.004159 -17.770708
vt -0.002620 -23.603546
vt 2.347019 -17.989259
vt -0.002620 -23.603546
vt 1.478622 -23.741233
vt 0.000000 -18.400000
vt -0.004159 -17.770708
vt 2.347019 -17.989259
vt 0.000000 -24.000000
vt 1.478622 -23.741233
vt -0.002620 -23.603546
vt -0.004159 -17.770708
vt -2.353390 -17.846610
vt -1.482636 -23.651364
vt -0.004159 -17.770708
vt -1.482636 -23.651364
vt -0.002620 -23.603546
vt 0.000000 -18.400000
vt -2.353390 -17.846610
vt -0.004159 -17.770708
vt 0.000000 -24.000000
vt -0.002620 -23.603546
vt -1.482636 -23.651364
vt -2.353390 -17.846610
vt -3.601444 -18.181449
vt -2.268910 -23.862313
vt -2.353390 -17.846610
vt -2.268910 -23.862313
vt -1.482636 -23.651364
vt 0.000000 -18.400000
vt -3.601444 -18.181449
vt -2.353390 -17.846610
vt 0.000000 -24.000000
vt -1.482636 -23.651364
vt -2.268910 -23.862313
vt -3.601444 -18.181449
vt -3.164343 -18.618551
vt -1.993536 -24.137687
vt -3.601444 -18.181449
vt -1.993536 -24.137687
vt -2.268910 -23.862313
vt 0.000000 -18.400000
vt -3.164343 -18.618551
vt -3.601444 -18.181449
vt 0.000000 -24.000000
vt -2.268910 -23.862313
vt -1.993536 -24.137687
vt -3.164343 -18.618551
vt -1.246610 -18.953390
vt -0.785364 -24.348636
vt -3.164343 -18.618551
vt -0.785364 -24.348636
vt -1.993536 -24.137687
vt 0.000000 -18.400000
vt -1.246610 -18.953390
vt -3.164343 -18.618551
vt 0.000000 -24.000000
vt -1.993536 -24.137687
vt -0.785364 -24.348636
vt -1.246610 -18.953390
vt 1.254426 -19.029292
vt 0.790288 -24.396454
vt -1.246610 -18.953390
vt 0.790288 -24.396454
vt -0.785364 -24.348636
vt 0.000000 -18.400000
vt 1.254426 -19.029292
vt -1.246610 -18.953390
vt 0.000000 -24.000000
vt -0.785364 -24.348636
vt 0.790288 -24.396454
vt 1.254426 -19.029292
vt 3.168501 -18.810741
vt 1.996156 -24.258767
vt 1.254426 -19.029292
vt 1.996156 -24.258767
vt 0.790288 -24.396454
vt 0.000000 -18.400000
vt 3.168501 -18.810741
vt 1.254426 -19.029292
vt 0.000000 -24.000000
vt 0.790288 -24.396454
vt 1.996156 -24.258767
vt 3.168501 -18.810741
vt 3.600000 -18.400000
vt 2.268000 -24.000000
vt 3.168501 -18.810741
vt 2.268000 -24.000000
vt 1.996156 -24.258767
vt 0.000000 -18.400000
vt 3.600000 -18.400000
vt 3.168501 -18.810741
vt 0.000000 -24.000000
vt 1.996156 -24.258767
vt 2.268000 -24.000000
f 193/193/193 194/194/194 195/195/195
f 196/196/196 197/197/197 198/198/198
f 199/199/199 200/200/200 201/201/201
f 202/202/202 203/203/203 204/204/204
f 205/205/205 206/206/206 207/207/207
f 208/208/208 209/209/209 210/210/210
f 211/211/211 212/212/212 213/213/213
f 214/214/214 215/215/215 216/216/216
f 217/217/217 218/218/218 219/219/219
f 220/220/220 221/221/221 222/222/222
f 223/223/223 224/224/224 225/225/225
f 226/226/226 227/227/227 228/228/228
f 229/229/229 230/230/230 231/231/231
f 232/232/232 233/233/233 234/234/234
f 235/235/235 236/236/236 237/237/237
f 238/238/238 239/239/239 240/240/240
f 241/241/241 242/242/242 243/243/243
f 244/244/244 245/245/245 246/246/246
f 247/247/247 248/248/248 249/249/249
f 250/250/250 251/251/251 252/252/252
f 253/253/253 254/254/254 255/255/255
f 256/256/256 257/257/257 258/258/258
f 259/259/259 260/260/260 261/261/261
f 262/262/262 263/263/263 264/264/264
f 265/265/265 266/266/266 267/267/267
f 268/268/268 269/269/269 270/270/270
f 271/271/271 272/272/272 273/273/273
f 274/274/274 275/275/275 276/276/276
f 277/277/277 278/278/278 279/279/279
f 280/280/280 281/281/281 282/282/282
f 283/283/283 284/284/284 285/285/285
f 286/286/286 287/287/287 288/288/288
f 289/289/289 290/290/290 291/291/291
f 292/292/292 293/293/293 294/294/294
f 295/295/295 296/296/296 297/297/297
f 298/298/298 299/299/299 300/300/300
f 301/301/301 302/302/302 303/303/303
f 304/304/304 305/305/305 306/306/306
f 307/307/307 308/308/308 309/309/309
f 310/310/310 311/311/311 312/312/312
f 313/313/313 314/314/314 315/315/315
f 316/316/316 317/317/317 318/318/318
f 319/319/319 320/320/320 321/321/321
f 322/322/322 323/323/323 324/324/324
f 325/325/325 326/326/326 327/327/327
f 328/328/328 329/329/329 330/330/330
f 331/331/331 332/332/332 333/333/333
f 334/334/334 335/335/335 336/336/336
f 337/337/337 338/338/338 339/339/339
f 340/340/340 341/341/341 342/342/342
f 343/343/343 344/344/344 345/345/345
f 346/346/346 347/347/347 348/348/348
f 349/349/349 350/350/350 351/351/351
f 352/352/352 353/353/353 354/354/354
f 355/355/355 356/356/356 357/357/357
f 358/358/358 359/359/359 360/360/360
f 361/361/361 362/362/362 363/363/363
f 364/364/364 365/365/365 366/366/366
f 367/367/367 368/368/368 369/369/369
f 370/370/370 371/371/371 372/372/372
f 373/373/373 374/374/374 375/375/375
f 376/376/376 377/377/377 378/378/378
f 379/379/379 380/380/380 381/381/381
f 382/382/382 383/383/383 384/384/384
f 385/385/385 386/386/386 387/387/387
f 388/388/388 389/389/389 390/390/390
f 391/391/391 392/392/392 393/393/393
f 394/394/394 395/395/395 396/396/396
f 397/397/397 398/398/398 399/399/399
f 400/400/400 401/401/401 402/402/402
f 403/403/403 404/404/404 405/405/405
f 406/406/406 407/407/407 408/408/408
f 409/409/409 410/410/410 411/411/411
f 412/412/412 413/413/413 414/414/414
f 415/415/415 416/416/416 417/417/417
f 418/418/418 419/419/419 420/420/420
f 421/421/421 422/422/422 423/423/423
f 424/424/424 425/425/425 426/426/426
f 427/427/427 428/428/428 429/429/429
f 430/430/430 431/431/431 432/432/432
f 433/433/433 434/434/434 435/435/435
f 436/436/436 437/437/437 438/438/438
f 439/439/439 440/440/440 441/441/441
f 442/442/442 443/443/443 444/444/444
f 445/445/445 446/446/446 447/447/447
f 448/448/448 449/449/449 450/450/450
f 451/451/451 452/452/452 453/453/453
f 454/454/454 455/455/455 456/456/456
f 457/457/457 458/458/458 459/459/459
f 460/460/460 461/461/461 462/462/462
f 463/463/463 464/464/464 465/465/465
f 466/466/466 467/467/467 468/468/468
f 469/469/469 470/470/470 471/471/471
f 472/472/472 473/473/473 474/474/474
f 475/475/475 476/476/476 477/477/477
f 478/478/478 479/479/479 480/480/480
f 481/481/481 482/482/482 483/483/483
f 484/484/484 485/485/485 486/486/486
f 487/487/487 488/488/488 489/489/489
f 490/490/490 491/491/491 492/492/492
f 493/493/493 494/494/494 495/495/495
f 496/496/496 497/497/497 498/498/498
f 499/499/499 500/500/500 501/501/501
f 502/502/502 503/503/503 504/504/504
f 505/505/505 506/506/506 507/507/507
f 508/508/508 509/509/509 510/510/510
f 511/511/511 512/512/512 513/513/513
f 514/514/514 515/515/515 516/516/516